name rise44.9368peak50.754fall52.0217.mot
datacolumns 19
datarows 30
range 1.00333500000000 1.05167000000000
endheader
time	ground_force1_vx	ground_force1_vy	ground_force1_vz	ground_force1_px	ground_force1_py	ground_force1_pz	ground_force2_vx	ground_force2_vy	ground_force2_vz	ground_force2_px	ground_force2_py	ground_force2_pz	ground_torque1_x	ground_torque1_y	ground_torque1_z	ground_torque2_x	ground_torque2_y	ground_torque2_z	
1.00333500000000	65.66483599999999	806.87966100000006	64.40322800000000	0.39281600000000	0.00000000000000	0.09475800000000	0.00000000000000	0.00000000000000	0.00000000000000	0.00000000000000	0.00000000000000	0.00000000000000	0.00000000000000	36.76128200000000	0.00000000000000	0.00000000000000	0.00000000000000	0.00000000000000	
1.00500400000000	64.76886700000000	807.63983800000005	64.48135300000000	0.39180300000000	0.00000000000000	0.09479300000000	0.00000000000000	0.00000000000000	0.00000000000000	0.00000000000000	0.00000000000000	0.00000000000000	0.00000000000000	36.81725100000000	0.00000000000000	0.00000000000000	0.00000000000000	0.00000000000000	
1.00667100000000	63.86904200000000	808.24836800000003	64.54714400000000	0.39079200000000	0.00000000000000	0.09483000000000	0.00000000000000	0.00000000000000	0.00000000000000	0.00000000000000	0.00000000000000	0.00000000000000	0.00000000000000	36.86517600000000	0.00000000000000	0.00000000000000	0.00000000000000	0.00000000000000	
1.00833500000000	62.96618700000000	808.70725100000004	64.60057300000000	0.38978300000000	0.00000000000000	0.09486600000000	0.00000000000000	0.00000000000000	0.00000000000000	0.00000000000000	0.00000000000000	0.00000000000000	0.00000000000000	36.90498900000000	0.00000000000000	0.00000000000000	0.00000000000000	0.00000000000000	
1.01000100000000	62.06107700000000	809.01864899999998	64.64159800000000	0.38877500000000	0.00000000000000	0.09490400000000	0.00000000000000	0.00000000000000	0.00000000000000	0.00000000000000	0.00000000000000	0.00000000000000	0.00000000000000	36.93661100000000	0.00000000000000	0.00000000000000	0.00000000000000	0.00000000000000	
1.01167000000000	61.15443300000000	809.18488500000001	64.67016300000000	0.38776600000000	0.00000000000000	0.09494100000000	0.00000000000000	0.00000000000000	0.00000000000000	0.00000000000000	0.00000000000000	0.00000000000000	0.00000000000000	36.95995200000000	0.00000000000000	0.00000000000000	0.00000000000000	0.00000000000000	
1.01333300000000	60.24692800000000	809.20844299999999	64.68620199999999	0.38675800000000	0.00000000000000	0.09497900000000	0.00000000000000	0.00000000000000	0.00000000000000	0.00000000000000	0.00000000000000	0.00000000000000	0.00000000000000	36.97491500000000	0.00000000000000	0.00000000000000	0.00000000000000	0.00000000000000	
1.01499800000000	59.33918800000000	809.09197200000006	64.68964300000000	0.38574800000000	0.00000000000000	0.09501800000000	0.00000000000000	0.00000000000000	0.00000000000000	0.00000000000000	0.00000000000000	0.00000000000000	0.00000000000000	36.98139800000000	0.00000000000000	0.00000000000000	0.00000000000000	0.00000000000000	
1.01666500000000	58.43179300000000	808.83828300000005	64.68040800000000	0.38473600000000	0.00000000000000	0.09505700000000	0.00000000000000	0.00000000000000	0.00000000000000	0.00000000000000	0.00000000000000	0.00000000000000	0.00000000000000	36.97929400000000	0.00000000000000	0.00000000000000	0.00000000000000	0.00000000000000	
1.01833100000000	57.52528200000000	808.45035099999996	64.65841899999999	0.38372100000000	0.00000000000000	0.09509700000000	0.00000000000000	0.00000000000000	0.00000000000000	0.00000000000000	0.00000000000000	0.00000000000000	0.00000000000000	36.96849600000000	0.00000000000000	0.00000000000000	0.00000000000000	0.00000000000000	
1.02000400000000	56.62015500000000	807.93130799999994	64.62359900000000	0.38270200000000	0.00000000000000	0.09513700000000	0.00000000000000	0.00000000000000	0.00000000000000	0.00000000000000	0.00000000000000	0.00000000000000	0.00000000000000	36.94889900000000	0.00000000000000	0.00000000000000	0.00000000000000	0.00000000000000	
1.02166300000000	55.71687500000000	807.28444800000000	64.57587500000000	0.38167800000000	0.00000000000000	0.09517700000000	0.00000000000000	0.00000000000000	0.00000000000000	0.00000000000000	0.00000000000000	0.00000000000000	0.00000000000000	36.92039800000000	0.00000000000000	0.00000000000000	0.00000000000000	0.00000000000000	
1.02333300000000	54.81587000000000	806.51321900000005	64.51518200000000	0.38064700000000	0.00000000000000	0.09521800000000	0.00000000000000	0.00000000000000	0.00000000000000	0.00000000000000	0.00000000000000	0.00000000000000	0.00000000000000	36.88289500000000	0.00000000000000	0.00000000000000	0.00000000000000	0.00000000000000	
1.02499600000000	53.91754000000000	805.62121999999999	64.44146300000000	0.37961000000000	0.00000000000000	0.09525900000000	0.00000000000000	0.00000000000000	0.00000000000000	0.00000000000000	0.00000000000000	0.00000000000000	0.00000000000000	36.83629800000000	0.00000000000000	0.00000000000000	0.00000000000000	0.00000000000000	
1.02666900000000	53.02225500000000	804.61219800000003	64.35467700000000	0.37856400000000	0.00000000000000	0.09530100000000	0.00000000000000	0.00000000000000	0.00000000000000	0.00000000000000	0.00000000000000	0.00000000000000	0.00000000000000	36.78052600000000	0.00000000000000	0.00000000000000	0.00000000000000	0.00000000000000	
1.02833000000000	52.13036000000000	803.49004500000001	64.25479500000000	0.37750900000000	0.00000000000000	0.09534400000000	0.00000000000000	0.00000000000000	0.00000000000000	0.00000000000000	0.00000000000000	0.00000000000000	0.00000000000000	36.71550500000000	0.00000000000000	0.00000000000000	0.00000000000000	0.00000000000000	
1.03000400000000	51.24217900000000	802.25878599999999	64.14180700000000	0.37644400000000	0.00000000000000	0.09538600000000	0.00000000000000	0.00000000000000	0.00000000000000	0.00000000000000	0.00000000000000	0.00000000000000	0.00000000000000	36.64117800000000	0.00000000000000	0.00000000000000	0.00000000000000	0.00000000000000	
1.03166800000000	50.35801500000000	800.92258000000004	64.01572200000000	0.37536700000000	0.00000000000000	0.09542900000000	0.00000000000000	0.00000000000000	0.00000000000000	0.00000000000000	0.00000000000000	0.00000000000000	0.00000000000000	36.55750000000000	0.00000000000000	0.00000000000000	0.00000000000000	0.00000000000000	
1.03333500000000	49.47815500000000	799.48570700000005	63.87657000000000	0.37427700000000	0.00000000000000	0.09547300000000	0.00000000000000	0.00000000000000	0.00000000000000	0.00000000000000	0.00000000000000	0.00000000000000	0.00000000000000	36.46444100000000	0.00000000000000	0.00000000000000	0.00000000000000	0.00000000000000	
1.03500200000000	48.60287200000000	797.95256600000005	63.72440500000000	0.37317400000000	0.00000000000000	0.09551700000000	0.00000000000000	0.00000000000000	0.00000000000000	0.00000000000000	0.00000000000000	0.00000000000000	0.00000000000000	36.36199200000000	0.00000000000000	0.00000000000000	0.00000000000000	0.00000000000000	
1.03666300000000	47.73242600000000	796.32766100000003	63.55930800000000	0.37205500000000	0.00000000000000	0.09556100000000	0.00000000000000	0.00000000000000	0.00000000000000	0.00000000000000	0.00000000000000	0.00000000000000	0.00000000000000	36.25015800000000	0.00000000000000	0.00000000000000	0.00000000000000	0.00000000000000	
1.03833200000000	46.86706800000000	794.61559899999997	63.38138500000000	0.37092100000000	0.00000000000000	0.09560600000000	0.00000000000000	0.00000000000000	0.00000000000000	0.00000000000000	0.00000000000000	0.00000000000000	0.00000000000000	36.12896900000000	0.00000000000000	0.00000000000000	0.00000000000000	0.00000000000000	
1.04000300000000	46.00704300000000	792.82107499999995	63.19076800000000	0.36977000000000	0.00000000000000	0.09565100000000	0.00000000000000	0.00000000000000	0.00000000000000	0.00000000000000	0.00000000000000	0.00000000000000	0.00000000000000	35.99847300000000	0.00000000000000	0.00000000000000	0.00000000000000	0.00000000000000	
1.04166900000000	45.15258800000000	790.94886599999995	62.98762000000000	0.36860100000000	0.00000000000000	0.09569700000000	0.00000000000000	0.00000000000000	0.00000000000000	0.00000000000000	0.00000000000000	0.00000000000000	0.00000000000000	35.85874000000000	0.00000000000000	0.00000000000000	0.00000000000000	0.00000000000000	
1.04333800000000	44.30393700000000	789.00382100000002	62.77213400000000	0.36741300000000	0.00000000000000	0.09574300000000	0.00000000000000	0.00000000000000	0.00000000000000	0.00000000000000	0.00000000000000	0.00000000000000	0.00000000000000	35.70986400000000	0.00000000000000	0.00000000000000	0.00000000000000	0.00000000000000	
1.04500400000000	43.46132400000000	786.99084900000003	62.54453100000000	0.36620500000000	0.00000000000000	0.09578900000000	0.00000000000000	0.00000000000000	0.00000000000000	0.00000000000000	0.00000000000000	0.00000000000000	0.00000000000000	35.55196100000000	0.00000000000000	0.00000000000000	0.00000000000000	0.00000000000000	
1.04666300000000	42.62498000000000	784.91490799999997	62.30506400000000	0.36497700000000	0.00000000000000	0.09583600000000	0.00000000000000	0.00000000000000	0.00000000000000	0.00000000000000	0.00000000000000	0.00000000000000	0.00000000000000	35.38517100000000	0.00000000000000	0.00000000000000	0.00000000000000	0.00000000000000	
1.04833400000000	41.79513900000000	782.78099999999995	62.05401400000000	0.36372700000000	0.00000000000000	0.09588300000000	0.00000000000000	0.00000000000000	0.00000000000000	0.00000000000000	0.00000000000000	0.00000000000000	0.00000000000000	35.20965900000000	0.00000000000000	0.00000000000000	0.00000000000000	0.00000000000000	
1.05000200000000	40.97203500000000	780.59415000000001	61.79169400000000	0.36245500000000	0.00000000000000	0.09593000000000	0.00000000000000	0.00000000000000	0.00000000000000	0.00000000000000	0.00000000000000	0.00000000000000	0.00000000000000	35.02561100000000	0.00000000000000	0.00000000000000	0.00000000000000	0.00000000000000	
1.05167000000000	40.15590600000000	778.35940700000003	61.51844500000000	0.36115900000000	0.00000000000000	0.09597700000000	0.00000000000000	0.00000000000000	0.00000000000000	0.00000000000000	0.00000000000000	0.00000000000000	0.00000000000000	34.83323700000000	0.00000000000000	0.00000000000000	0.00000000000000	0.00000000000000	
